<svg width="260" height="270" xmlns="http://www.w3.org/2000/svg" xmlns:svg="http://www.w3.org/2000/svg" style="stroke: black; fill: #334353; stroke-width: 3;">
 <g>
  <title>Layer 1</title>
  <polygon id="svg_13"/>
  <polygon id="svg_14"/>
  <polygon points="256.70806884765625,89.90362548828125 232.83551025390625,131.252197265625 185.09033203125,131.252197265625 161.2176513671875,89.90362548828125 185.09033203125,48.5550537109375 232.83551025390625,48.5550537109375 256.70806884765625,89.90362548828125 "  id="svg_19"      />
  <polygon points="98.73638916015625,89.4957275390625 74.86383056640625,130.84429931640625 27.11859130859375,130.84429931640625 3.2459716796875,89.4957275390625 27.11859130859375,48.14715576171875 74.86383056640625,48.14715576171875 98.73638916015625,89.4957275390625 "  id="svg_29"   />
  <polygon points="177.912841796875,43.828399658203125 154.040283203125,85.17697143554688 106.2950439453125,85.17697143554688 82.42242431640625,43.828399658203125 106.2950439453125,2.4798583984375 154.040283203125,2.4798583984375 177.912841796875,43.828399658203125 "  id="svg_30"   />
  <polygon points="177.78717041015625,135.12527465820312 153.91461181640625,176.4737548828125 106.16937255859375,176.4737548828125 82.2967529296875,135.12527465820312 106.16937255859375,93.7767333984375 153.91461181640625,93.7767333984375 177.78717041015625,135.12527465820312 "  id="svg_31"   />
  <polygon points="99.011474609375,180.4302978515625 75.138916015625,221.77880859375 27.3936767578125,221.77880859375 3.52105712890625,180.4302978515625 27.3936767578125,139.08175659179688 75.138916015625,139.08175659179688 99.011474609375,180.4302978515625 "  id="svg_37"      />
  <polygon points="256.6923828125,180.6441650390625 232.81988525390625,221.99267578125 185.07470703125,221.99267578125 161.2020263671875,180.6441650390625 185.07470703125,139.2955322265625 232.81988525390625,139.2955322265625 256.6923828125,180.6441650390625 "  id="svg_55"      />
  <polygon id="svg_1" points="177.8448486328125,226.0218963623047 153.97235107421875,267.37042236328125 106.2271728515625,267.37042236328125 82.3544921875,226.0218963623047 106.2271728515625,184.6732635498047 153.97235107421875,184.6732635498047 177.8448486328125,226.0218963623047 "       />
 </g>
</svg>